<?xml version="1.0" encoding="utf-8"?>
<!-- Generator: Adobe Illustrator 23.0.5, SVG Export Plug-In . SVG Version: 6.00 Build 0)  -->
<svg version="1.1" id="Layer_1" xmlns="http://www.w3.org/2000/svg" xmlns:xlink="http://www.w3.org/1999/xlink" x="0px" y="0px"
	 viewBox="0 0 1800 1800" style="enable-background:new 0 0 1800 1800;" xml:space="preserve">
<style type="text/css">
	.st0{display:none;}
	.st1{display:inline;fill:#2B00D4;}
	.st2{fill:none;stroke:url(#SVGID_1_);stroke-width:11;stroke-miterlimit:10;}
	.st3{display:none;opacity:0.5;fill:url(#SVGID_2_);}
</style>
<g class="st0">
	<rect class="st1" width="1800" height="1800"/>
</g>
<linearGradient id="SVGID_1_" gradientUnits="userSpaceOnUse" x1="1380.8927" y1="323.3305" x2="570.6507" y2="1726.7109">
	<stop  offset="0" style="stop-color:#332864"/>
	<stop  offset="0.8034" style="stop-color:#332864;stop-opacity:0"/>
</linearGradient>
<path class="st2" d="M306.9,802.5l179.3,651.1H114.5L306.9,802.5z M1402.6,349.4l-365.5,4.6l-68.2,698.8h383.4L1402.6,349.4z
	 M773.2,346.4l-365.5,4.4l271.5,1102.8h372.6L773.2,346.4z M1407,346.4l-365.5,4.4L1313,1453.6h372.6L1407,346.4z"/>
<radialGradient id="SVGID_2_" cx="879.1747" cy="1948.3656" r="284.9362" gradientTransform="matrix(2.4974 0.2395 -7.235437e-02 0.7546 -1089.207 -379.1081)" gradientUnits="userSpaceOnUse">
	<stop  offset="6.926126e-08" style="stop-color:#030342"/>
	<stop  offset="1" style="stop-color:#272727;stop-opacity:0"/>
</radialGradient>
<path class="st3" d="M1677,1369.9c-11.4,118.7-339.2,184.5-732.2,146.8c-393-37.7-702.4-164.5-691-283.2
	c11.4-118.7,339.2-184.5,732.2-146.8C1379.1,1124.3,1688.4,1251.1,1677,1369.9z"/>
</svg>
